<svg width="16" height="111" viewBox="0 0 16 111" fill="none" xmlns="http://www.w3.org/2000/svg">
<path d="M7.29289 110.707C7.68342 111.098 8.31658 111.098 8.70711 110.707L15.0711 104.343C15.4616 103.953 15.4616 103.319 15.0711 102.929C14.6805 102.538 14.0474 102.538 13.6569 102.929L8 108.586L2.34315 102.929C1.95262 102.538 1.31946 102.538 0.928932 102.929C0.538408 103.319 0.538408 103.953 0.928932 104.343L7.29289 110.707ZM7 0.5V1.51389H9V0.5H7ZM7 3.54167V5.56944H9V3.54167H7ZM7 7.59722V9.625H9V7.59722H7ZM7 11.6528V13.6806H9V11.6528H7ZM7 15.7083V17.7361H9V15.7083H7ZM7 19.7639V21.7917H9V19.7639H7ZM7 23.8194V25.8472H9V23.8194H7ZM7 27.875V29.9028H9V27.875H7ZM7 31.9306V33.9583H9V31.9306H7ZM7 35.9861V38.0139H9V35.9861H7ZM7 40.0417V42.0695H9V40.0417H7ZM7 44.0972V46.125H9V44.0972H7ZM7 48.1528V50.1806H9V48.1528H7ZM7 52.2083V54.2361H9V52.2083H7ZM7 56.2639V58.2917H9V56.2639H7ZM7 60.3195V62.3472H9V60.3195H7ZM7 64.375V66.4028H9V64.375H7ZM7 68.4306V70.4584H9V68.4306H7ZM7 72.4861V74.5139H9V72.4861H7ZM7 76.5417V78.5695H9V76.5417H7ZM7 80.5972V82.625H9V80.5972H7ZM7 84.6528V86.6806H9V84.6528H7ZM7 88.7084V90.7361H9V88.7084H7ZM7 92.7639V94.7917H9V92.7639H7ZM7 96.8195V98.8473H9V96.8195H7ZM7 100.875V102.903H9V100.875H7ZM7 104.931V106.958H9V104.931H7ZM7 108.986V110H9V108.986H7Z" fill="#030F3A"/>
</svg>
